<svg width="16" height="17" viewBox="0 0 16 17" fill="none" xmlns="http://www.w3.org/2000/svg">
<mask id="mask0" mask-type="alpha" maskUnits="userSpaceOnUse" x="0" y="0" width="16" height="17">
<path fill-rule="evenodd" clip-rule="evenodd" d="M0.890137 0.854797H15.7478V16.1481H0.890137V0.854797Z" fill="white"/>
</mask>
<g mask="url(#mask0)">
<path fill-rule="evenodd" clip-rule="evenodd" d="M8.319 0.854797C6.30143 0.854797 6.04845 0.863601 5.25608 0.900819C4.46537 0.937946 3.92534 1.06724 3.45281 1.2563C2.9643 1.45171 2.55001 1.71321 2.13699 2.13836C1.72399 2.56354 1.46998 2.99003 1.28016 3.49292C1.0965 3.97937 0.970907 4.5353 0.934842 5.34929C0.898688 6.16499 0.890137 6.42543 0.890137 8.5024C0.890137 10.5793 0.898688 10.8398 0.934842 11.6555C0.970907 12.4695 1.0965 13.0254 1.28016 13.5118C1.46998 14.0147 1.72399 14.4412 2.13699 14.8664C2.55001 15.2916 2.9643 15.5531 3.45281 15.7485C3.92534 15.9375 4.46537 16.0668 5.25608 16.104C6.04845 16.1412 6.30143 16.15 8.319 16.15C10.3365 16.15 10.5895 16.1412 11.3819 16.104C12.1726 16.0668 12.7126 15.9375 13.1852 15.7485C13.6737 15.5531 14.088 15.2916 14.501 14.8664C14.914 14.4412 15.168 14.0147 15.3579 13.5118C15.5415 13.0254 15.6671 12.4695 15.7031 11.6555C15.7393 10.8398 15.7478 10.5793 15.7478 8.5024C15.7478 6.42543 15.7393 6.16499 15.7031 5.34929C15.6671 4.5353 15.5415 3.97937 15.3579 3.49292C15.168 2.99003 14.914 2.56354 14.501 2.13836C14.088 1.71321 13.6737 1.45171 13.1852 1.2563C12.7126 1.06724 12.1726 0.937946 11.3819 0.900819C10.5895 0.863601 10.3365 0.854797 8.319 0.854797ZM8.319 2.23274C10.3026 2.23274 10.5375 2.24054 11.3209 2.27733C12.0452 2.31133 12.4385 2.43592 12.7003 2.54065C13.0471 2.67938 13.2945 2.8451 13.5545 3.11273C13.8145 3.38033 13.9754 3.63509 14.1102 3.99206C14.2119 4.26154 14.333 4.66647 14.366 5.4121C14.4017 6.21851 14.4093 6.4604 14.4093 8.5024C14.4093 10.5444 14.4017 10.7863 14.366 11.5927C14.333 12.3383 14.2119 12.7432 14.1102 13.0127C13.9754 13.3697 13.8145 13.6244 13.5545 13.892C13.2945 14.1597 13.0471 14.3254 12.7003 14.4641C12.4385 14.5688 12.0452 14.6934 11.3209 14.7274C10.5377 14.7642 10.3027 14.772 8.319 14.772C6.33526 14.772 6.10035 14.7642 5.3171 14.7274C4.59279 14.6934 4.19944 14.5688 3.93767 14.4641C3.59091 14.3254 3.34344 14.1597 3.08349 13.892C2.82355 13.6244 2.66254 13.3697 2.52777 13.0127C2.42604 12.7432 2.30501 12.3383 2.27199 11.5927C2.23625 10.7863 2.22867 10.5444 2.22867 8.5024C2.22867 6.4604 2.23625 6.21851 2.27199 5.4121C2.30501 4.66647 2.42604 4.26154 2.52777 3.99206C2.66254 3.63509 2.82352 3.38033 3.08349 3.11273C3.34344 2.8451 3.59091 2.67938 3.93767 2.54065C4.19944 2.43592 4.59279 2.31133 5.3171 2.27733C6.10044 2.24054 6.3354 2.23274 8.319 2.23274Z" fill="#3F4F56"/>
</g>
<path fill-rule="evenodd" clip-rule="evenodd" d="M8.31923 11.0516C6.95159 11.0516 5.84293 9.91028 5.84293 8.50241C5.84293 7.0945 6.95159 5.9532 8.31923 5.9532C9.68683 5.9532 10.7955 7.0945 10.7955 8.50241C10.7955 9.91028 9.68683 11.0516 8.31923 11.0516ZM8.31922 4.57526C6.21233 4.57526 4.50439 6.33348 4.50439 8.50241C4.50439 10.6713 6.21233 12.4295 8.31922 12.4295C10.4261 12.4295 12.134 10.6713 12.134 8.50241C12.134 6.33348 10.4261 4.57526 8.31922 4.57526Z" fill="#3F4F56"/>
<path fill-rule="evenodd" clip-rule="evenodd" d="M13.176 4.42011C13.176 4.92695 12.7769 5.3378 12.2845 5.3378C11.7922 5.3378 11.3931 4.92695 11.3931 4.42011C11.3931 3.91326 11.7922 3.50238 12.2845 3.50238C12.7769 3.50238 13.176 3.91326 13.176 4.42011Z" fill="#3F4F56"/>
</svg>
