<svg width="17" height="15" viewBox="0 0 17 15" fill="none" xmlns="http://www.w3.org/2000/svg">
<path fill-rule="evenodd" clip-rule="evenodd" d="M14.8243 3.88474C14.8323 4.0326 14.8356 4.18207 14.8358 4.33153C14.8439 8.89095 11.4412 14.1557 5.2009 14.1671C3.2862 14.1706 1.50093 13.6033 0 12.627C0.264078 12.6569 0.533647 12.6742 0.807399 12.6737C2.39827 12.6709 3.85972 12.117 5.018 11.1865C3.53355 11.1619 2.27905 10.1671 1.84593 8.79587C2.05183 8.83749 2.26597 8.85877 2.48403 8.85837C2.79334 8.85784 3.09246 8.81528 3.37771 8.73537C1.82227 8.42221 0.653528 7.02878 0.650651 5.35849C0.650521 5.342 0.650521 5.32804 0.650521 5.31341C1.10782 5.57018 1.63062 5.72563 2.18779 5.74079C1.27686 5.12698 0.677321 4.06957 0.675229 2.874C0.674183 2.24038 0.839036 1.64771 1.12978 1.13975C2.80615 3.22266 5.3094 4.59017 8.12863 4.72912C8.0685 4.477 8.03974 4.21398 8.03921 3.94391C8.03581 2.03773 9.55204 0.490706 11.4237 0.487249C12.4009 0.48552 13.2833 0.901065 13.9034 1.57312C14.6731 1.41687 15.398 1.12752 16.0544 0.730858C15.8026 1.53774 15.2659 2.21352 14.5681 2.64143C15.2519 2.55766 15.9066 2.37043 16.5138 2.0961C16.062 2.7881 15.4876 3.39938 14.8243 3.88474Z" fill="#3F4F56"/>
</svg>
