<svg width="16" height="17" viewBox="0 0 16 17" fill="none" xmlns="http://www.w3.org/2000/svg">
<mask id="mask0" mask-type="alpha" maskUnits="userSpaceOnUse" x="0" y="0" width="16" height="17">
<path fill-rule="evenodd" clip-rule="evenodd" d="M0.312012 0.872192H15.1203V16.1449H0.312012V0.872192Z" fill="white"/>
</mask>
<g mask="url(#mask0)">
<path fill-rule="evenodd" clip-rule="evenodd" d="M11.259 10.0054C11.0767 9.90319 10.1816 9.40866 10.0137 9.33879C9.84586 9.269 9.72339 9.23262 9.59254 9.41809C9.46185 9.60305 9.09045 10.0173 8.97795 10.14C8.86486 10.2627 8.75617 10.2741 8.57375 10.1717C8.392 10.0699 7.80124 9.84615 7.11616 9.17202C6.58302 8.64731 6.23338 8.01109 6.132 7.81695C6.03046 7.62255 6.13126 7.52353 6.22765 7.43258C6.31417 7.35047 6.42136 7.21753 6.51826 7.11034C6.61482 7.00307 6.64895 6.92513 6.71537 6.80069C6.7818 6.67625 6.75506 6.56413 6.71197 6.46732C6.66896 6.37084 6.33211 5.42156 6.19145 5.03541C6.05072 4.64925 5.89396 4.70663 5.7856 4.70229C5.67741 4.69847 5.55428 4.67764 5.43048 4.67297C5.30677 4.66812 5.10384 4.70807 4.92699 4.8915C4.74997 5.07502 4.25378 5.51617 4.21957 6.45117C4.18536 7.38557 4.81714 8.31445 4.90523 8.4445C4.99341 8.57489 6.11166 10.601 7.97004 11.4343C9.82884 12.2673 9.83855 12.0133 10.1796 11.9946C10.5208 11.9763 11.2942 11.5769 11.4653 11.1396C11.6362 10.7021 11.6499 10.3218 11.6064 10.2408C11.5628 10.1599 11.4411 10.1073 11.259 10.0054ZM7.85039 14.5097C6.62147 14.5097 5.47681 14.1323 4.52105 13.4854L2.19546 14.2475L2.95137 11.9469C2.22685 10.9253 1.79891 9.67046 1.79891 8.31445C1.79891 4.89805 4.51375 2.11872 7.85039 2.11872C11.1877 2.11872 13.9024 4.89805 13.9024 8.31445C13.9024 11.7305 11.1877 14.5097 7.85039 14.5097ZM7.8504 0.872192C3.83573 0.872192 0.581029 4.20402 0.581029 8.31445C0.581029 9.72044 0.96222 11.0355 1.62414 12.1573L0.312012 16.15L4.33681 14.831C5.37842 15.4204 6.57605 15.7566 7.8504 15.7566C11.8657 15.7566 15.1203 12.4244 15.1203 8.31445C15.1203 4.20402 11.8657 0.872192 7.8504 0.872192Z" fill="#3F4F56"/>
</g>
</svg>
